<svg version="1.1" id="Layer_1" xmlns="http://www.w3.org/2000/svg" xmlns:xlink="http://www.w3.org/1999/xlink" x="0px" y="0px"
	 width="100%" viewBox="0 0 1920 359" enable-background="new 0 0 1920 359" xml:space="preserve">
<path fill="#CB8D77" opacity="1.000000" stroke="none" 
	d="
M1921.000000,74.000000 
	C1921.000000,169.315796 1921.000000,264.631592 1921.000000,359.950165 
	C1281.000000,359.952942 641.000000,359.952942 1.000000,359.952942 
	C1.000000,341.575867 1.000000,323.245880 1.335088,304.464966 
	C2.113347,304.064880 2.556517,304.115753 3.092199,304.378326 
	C4.123193,304.115570 5.061674,303.641113 6.416674,303.108826 
	C9.214978,303.303802 11.596766,303.556641 14.124615,304.080383 
	C18.112501,307.020020 19.234131,306.440430 20.951393,300.932678 
	C20.961569,300.960846 20.905499,300.939728 21.312883,300.927368 
	C28.187820,299.076874 35.484722,299.942017 41.434589,294.998749 
	C45.118607,294.761627 49.002594,295.816437 50.276501,290.845703 
	C51.368725,289.516510 52.184444,288.341583 53.373127,287.110840 
	C54.497284,287.092255 55.248478,287.129456 56.131599,287.431580 
	C60.162418,290.053619 62.172215,288.796997 64.075378,282.632935 
	C64.757599,281.905762 65.321472,281.431732 66.279213,280.932404 
	C69.893417,279.669159 73.456284,278.947327 76.262283,277.085083 
	C81.979156,273.290924 87.673233,270.004089 94.778648,269.595978 
	C97.595528,269.434174 100.379677,268.182495 100.272736,264.321564 
	C100.301987,264.242096 100.464165,264.193268 100.881462,264.274353 
	C107.188744,264.371674 111.143623,261.604004 113.404449,256.109253 
	C117.196709,256.090118 120.584671,256.128387 123.916138,256.457275 
	C124.975792,258.109100 125.830093,260.174316 127.255371,260.704468 
	C132.283096,262.574493 136.875275,260.954102 141.429367,257.927246 
	C142.823349,258.149841 143.830215,258.330536 144.662003,258.817108 
	C144.809113,260.475861 145.131317,261.828674 145.453522,263.181519 
	C146.840958,262.607147 148.436646,262.284363 149.541962,261.369232 
	C150.268143,260.768005 150.286484,259.311829 150.491379,257.920197 
	C152.061020,256.790161 153.761108,255.978424 155.356079,255.493439 
	C154.724411,258.346405 154.875198,260.112030 158.156189,258.455231 
	C162.433365,256.295410 166.718353,254.151016 171.375000,252.000000 
	C172.500000,252.000000 173.250000,252.000000 174.304443,252.093765 
	C178.017944,253.008606 179.284943,250.957306 180.374207,248.262787 
	C183.217300,248.070755 185.703262,247.880157 188.151352,247.465866 
	C190.406509,247.084213 192.771103,245.697464 194.823105,246.100311 
	C199.547546,247.027847 203.732773,247.438782 208.519730,245.318924 
	C212.296356,243.646484 217.071442,243.667725 221.364517,243.849197 
	C228.455246,244.148956 235.775391,246.712326 242.528122,245.560974 
	C253.338043,243.717850 263.607941,245.203110 273.487030,248.269562 
	C283.980804,251.526794 293.854004,256.783234 303.941132,261.470459 
	C303.393372,264.779877 304.454041,265.800934 307.493073,264.875031 
	C310.327240,264.011536 313.472870,263.895111 316.075470,262.620819 
	C318.924225,261.226013 321.307739,258.880890 324.142578,256.653381 
	C325.927338,256.293457 327.463470,256.230072 329.122314,256.421997 
	C332.078125,259.555878 333.470154,258.555847 334.169556,254.641327 
	C336.963287,254.277328 339.481445,254.222000 342.073608,254.347168 
	C342.751129,254.313370 343.354645,254.099075 344.161377,253.616959 
	C345.242950,253.288315 346.121277,253.227493 347.140076,253.435638 
	C351.656372,256.456299 358.612823,254.519180 361.430725,249.918869 
	C366.551971,250.697418 371.275757,251.432037 376.097504,252.375000 
	C377.031281,252.111435 377.867065,251.639496 378.987183,251.111481 
	C379.847015,251.092484 380.422607,251.129562 380.966980,251.440247 
	C381.219910,255.906830 383.157959,254.301849 385.443237,252.933044 
	C388.229309,253.376083 390.614471,253.771378 393.073608,254.347168 
	C393.751129,254.313385 394.354645,254.099091 395.170166,253.610626 
	C398.254639,253.279861 401.127136,253.223267 404.121002,253.411285 
	C408.864471,255.923096 417.179199,250.967606 419.255493,244.585770 
	C431.035828,244.912521 442.517731,245.539597 454.074951,246.347809 
	C454.768127,246.295731 455.385925,246.062531 456.266846,245.549927 
	C459.019775,245.458054 461.509613,245.645569 464.080292,246.189087 
	C466.998962,251.297455 469.645477,251.349472 472.685394,246.812988 
	C476.628082,247.614136 480.117096,248.731400 483.653320,248.909195 
	C490.755096,249.266296 497.882690,249.110672 505.078461,249.371429 
	C505.604980,249.927994 506.052673,250.279770 506.500366,250.631546 
	C506.631561,250.071060 506.762726,249.510559 507.100586,248.674042 
	C508.204346,248.320908 509.101410,248.243790 510.008301,248.394043 
	C512.579224,252.426773 514.291687,248.657745 515.868164,247.674179 
	C521.675171,244.051224 526.649109,238.379547 534.701965,241.317383 
	C535.464661,241.595642 536.635193,241.010803 537.530273,240.626297 
	C541.036438,239.120132 544.641235,237.767181 547.940735,235.886093 
	C549.812378,234.819077 551.162659,232.837692 552.574707,230.957458 
	C553.921875,229.724503 555.442200,228.802170 557.088074,228.161255 
	C557.801025,228.975891 558.326477,229.868378 558.986328,229.982300 
	C562.500427,230.589050 574.268494,224.160492 576.075928,220.635620 
	C576.309875,220.198685 576.535583,220.053696 577.231812,219.995163 
	C580.789307,219.629288 584.475220,219.941330 583.933960,214.627411 
	C584.371826,213.102875 584.769775,211.900833 585.588684,210.662048 
	C587.673096,210.416870 589.336548,210.208450 591.308228,209.925781 
	C592.410950,209.567703 593.205505,209.283844 594.375000,209.000000 
	C595.500000,209.000000 596.250000,209.000000 597.215210,209.047577 
	C597.953613,208.396759 598.476807,207.698380 599.171509,206.773041 
	C599.895386,206.030716 600.447693,205.515366 601.184570,205.060455 
	C601.912781,204.747269 602.456421,204.373642 602.975098,203.626343 
	C602.596191,201.820160 602.242249,200.387634 602.051392,198.655975 
	C604.878906,196.180038 606.390991,192.052597 611.126465,193.426224 
	C615.076416,197.068649 615.154663,193.394699 616.397827,191.109390 
	C617.863464,191.090302 618.931580,191.128479 620.119629,191.409943 
	C623.887329,193.405472 624.373352,193.085220 626.093262,187.612946 
	C626.875244,186.560059 627.520935,185.780319 628.505859,184.932190 
	C629.977539,183.376617 631.109924,181.889435 632.271545,180.322754 
	C632.300781,180.243256 632.463074,180.194489 632.926392,180.272980 
	C635.361633,179.290100 637.333496,178.228729 639.666992,177.116760 
	C642.793274,177.766342 645.557983,178.466522 648.374146,179.474701 
	C648.995056,182.236557 650.276184,182.355835 652.447632,180.925568 
	C654.182068,181.150314 655.510864,181.334427 656.713989,181.741394 
	C656.580505,182.551514 656.572571,183.138779 656.564636,183.726013 
	C657.390442,183.445694 658.216248,183.165375 659.499023,182.925018 
	C665.130127,183.365555 670.304321,183.766129 675.371216,184.457947 
	C675.302002,185.639816 675.340088,186.530441 675.378174,187.421051 
	C676.266174,186.909058 677.154114,186.397095 678.423096,185.925293 
	C680.740662,186.365891 682.677124,186.766342 684.492432,187.510406 
	C683.478027,190.868469 685.235657,192.333588 687.662476,191.598373 
	C691.267395,190.506241 694.595764,188.501312 698.482056,186.924896 
	C701.281006,187.032166 703.639709,187.099411 705.964783,187.454147 
	C705.674683,190.733063 707.549377,190.912506 709.918274,191.358231 
	C712.997864,191.937698 716.301453,192.816833 718.799988,194.574341 
	C721.278442,196.317719 722.518677,195.863251 724.429932,193.928329 
	C727.877625,195.035767 730.938660,196.101212 734.127625,197.426910 
	C738.384216,201.052719 738.151917,197.098862 739.046265,194.673935 
	C739.319580,194.195679 739.569580,194.027634 740.282349,193.939575 
	C744.609680,193.675842 747.875488,192.469147 749.425903,188.108810 
	C751.567688,188.089539 753.283630,188.128098 755.139771,188.435394 
	C759.044250,191.078583 764.640198,189.932190 769.368408,185.932037 
	C770.129822,186.041687 770.564758,186.104172 771.135437,186.432327 
	C775.907776,189.505127 782.872498,186.699066 785.445557,181.108765 
	C789.593811,181.422791 793.296692,181.794724 797.092163,182.378326 
	C798.123230,182.115540 799.061707,181.641098 800.414307,181.108932 
	C802.218811,181.089691 803.609192,181.128174 805.132324,181.419403 
	C809.027222,184.491577 811.399597,183.020508 813.389038,179.108887 
	C815.510864,179.303406 817.243958,179.555679 819.140259,180.098770 
	C821.210022,180.916840 823.389954,182.319336 824.976746,181.823593 
	C832.854919,179.362274 840.636353,176.550156 848.303772,173.490448 
	C849.862793,172.868347 850.784607,170.649445 852.455200,169.108704 
	C856.273376,169.089401 859.636536,169.128021 863.092163,169.378326 
	C864.123230,169.115540 865.061707,168.641098 866.397827,168.109390 
	C867.863464,168.090302 868.931519,168.128479 870.096924,168.377472 
	C871.029541,168.096680 871.864807,167.605042 872.935547,166.822327 
	C874.133606,166.409744 875.096191,166.288223 876.231140,166.471329 
	C877.268982,167.517303 878.134521,168.258652 879.449951,169.000000 
	C882.599976,169.000000 885.299988,169.000000 888.425049,169.057404 
	C889.939331,168.837265 891.028564,168.559738 892.123352,168.219757 
	C892.128906,168.157303 892.253784,168.168396 892.441162,168.583923 
	C894.127563,169.457733 895.626587,169.916016 897.006714,170.465942 
	C896.887817,170.557587 896.704590,170.319870 897.127563,170.620636 
	C898.492432,171.316254 899.434204,171.711090 900.282532,171.804657 
	C901.125732,171.724472 902.062500,171.945572 903.046021,172.517883 
	C905.016785,178.945435 910.048401,181.180862 915.384033,178.141586 
	C918.413757,178.902283 921.126709,179.710403 923.713989,180.741394 
	C923.580505,181.551514 923.572571,182.138779 923.564636,182.726028 
	C924.390442,182.445709 925.216248,182.165390 926.411377,181.927170 
	C927.520386,182.035065 928.260010,182.100861 929.128906,182.429062 
	C933.039917,184.933914 936.148987,182.859009 938.046265,176.674042 
	C938.319275,176.195938 938.569092,176.028000 939.268738,175.922150 
	C943.432678,175.649887 945.515320,173.630066 946.075378,169.632935 
	C946.757629,168.905716 947.321533,168.431671 948.292847,167.941711 
	C955.447205,165.345718 962.230408,162.852814 968.901001,160.088486 
	C969.863464,159.689667 970.285095,157.985962 971.075378,156.632935 
	C971.757629,155.905731 972.321472,155.431732 973.238403,154.881668 
	C977.315247,153.928360 979.314758,151.466263 980.032959,147.509247 
	C980.660095,146.456100 981.272766,145.706863 982.244019,144.898468 
	C984.054077,143.188217 985.505554,141.537155 987.110718,139.578400 
	C990.234070,133.388901 993.203796,127.507072 996.558777,121.576691 
	C998.281738,119.980789 999.619385,118.433449 1001.130249,116.548058 
	C1002.593567,112.013367 1003.883606,107.816727 1005.569885,103.582367 
	C1010.140320,102.580231 1013.221069,100.474426 1013.951416,95.932686 
	C1013.961670,95.960869 1013.905579,95.939629 1014.305115,95.933060 
	C1017.147827,94.576355 1019.591064,93.226219 1022.416626,91.925888 
	C1024.532593,92.372673 1026.266113,92.769669 1028.148926,93.457794 
	C1031.248657,96.681023 1034.285522,98.870445 1038.364990,94.956139 
	C1039.160034,95.667465 1039.633057,96.308762 1039.905273,97.158882 
	C1039.352783,98.383026 1039.000854,99.398338 1038.649048,100.413651 
	C1039.851929,100.732468 1041.268677,101.625252 1042.220581,101.270592 
	C1046.300415,99.750595 1050.244873,97.864616 1051.042725,92.469208 
	C1052.676514,88.733032 1054.284912,85.341797 1056.222168,82.045563 
	C1059.367798,82.982094 1061.250000,82.111473 1062.425781,79.109360 
	C1067.234253,79.423584 1071.616943,79.795120 1076.120605,80.410873 
	C1080.393066,82.712494 1083.077637,80.950157 1084.270508,75.323776 
	C1084.299683,75.244423 1084.461548,75.196014 1084.905151,75.268707 
	C1090.104492,75.167480 1095.422363,76.375183 1097.551514,70.113113 
	C1097.490234,69.634995 1097.648438,69.330055 1098.093018,68.856873 
	C1099.003052,67.590981 1099.626953,66.493332 1100.277588,65.317963 
	C1100.304443,65.240234 1100.462402,65.194870 1100.877197,65.263748 
	C1103.218628,64.977188 1105.351807,65.032837 1107.032715,64.188171 
	C1111.831543,61.776840 1116.362793,60.389996 1121.751587,62.926125 
	C1124.240112,64.097260 1127.863525,64.413048 1129.441406,60.108765 
	C1132.254517,60.089466 1134.626343,60.128063 1136.941406,60.468117 
	C1137.282959,61.890522 1137.681396,63.011467 1138.079834,64.132401 
	C1139.053345,62.810478 1140.026855,61.488564 1141.414551,60.108932 
	C1143.218994,60.089699 1144.609253,60.128181 1146.092163,60.378361 
	C1147.123169,60.115597 1148.061646,59.641136 1149.465698,59.108673 
	C1161.620728,59.422668 1173.310181,59.794666 1185.094971,60.378075 
	C1186.112549,60.021702 1187.034790,59.453918 1188.046143,58.674053 
	C1188.319092,58.195934 1188.568970,58.027981 1189.311279,57.963417 
	C1191.158325,57.979153 1192.579224,57.989574 1194.293457,58.163185 
	C1196.057983,58.884247 1197.528931,59.442123 1199.239502,60.222260 
	C1202.097900,62.325043 1204.336182,66.467529 1208.484131,61.925732 
	C1214.283325,62.365795 1219.641602,62.766228 1225.128418,63.428638 
	C1228.389526,67.264908 1229.479614,63.901844 1231.429443,61.997536 
	C1236.125244,62.105236 1240.070068,61.778820 1240.354736,55.930874 
	C1244.153564,53.202827 1247.597778,50.543911 1251.411133,47.925289 
	C1253.178589,48.245857 1254.577026,48.526131 1256.131958,49.091232 
	C1260.386841,53.574360 1261.036987,49.922939 1262.235596,46.587326 
	C1266.003784,46.463375 1269.493530,46.638195 1273.093750,47.158295 
	C1274.312256,49.329849 1275.343750,51.208378 1276.546265,52.970184 
	C1278.362061,55.630596 1280.246826,55.325687 1282.415894,52.972008 
	C1283.470337,54.054314 1284.151733,55.050705 1284.511719,56.165970 
	C1283.564453,57.515148 1282.938477,58.745453 1282.312500,59.975777 
	C1283.910889,59.967720 1285.509399,59.959644 1287.427246,60.000286 
	C1288.201294,60.684074 1288.656006,61.319153 1288.878662,62.146351 
	C1288.428711,63.726189 1288.210815,65.113907 1287.992920,66.501617 
	C1289.676147,65.963112 1291.359619,65.424614 1293.335205,65.121643 
	C1294.455200,67.889488 1295.282959,70.421791 1295.901855,73.117691 
	C1295.179199,73.963303 1294.665405,74.645317 1294.151611,75.327332 
	C1294.345581,75.510330 1294.539673,75.693329 1294.733765,75.876335 
	C1295.503662,75.213150 1296.273682,74.549973 1297.334473,74.114044 
	C1298.452393,76.877579 1299.279297,79.413857 1299.908203,82.155289 
	C1299.353516,83.367981 1298.390625,84.898499 1298.736816,85.299774 
	C1301.346436,88.324745 1304.213379,91.127670 1307.104736,94.288254 
	C1307.806396,95.384346 1308.403198,96.192192 1309.151611,97.299469 
	C1310.768311,99.611870 1312.245361,101.616295 1313.695679,103.639885 
	C1315.714600,106.456573 1317.809204,106.843628 1320.328247,103.927834 
	C1321.184937,104.035271 1321.756348,104.100975 1322.328491,104.578766 
	C1322.442993,109.620514 1324.618530,111.029083 1328.968628,109.139801 
	C1329.059570,109.097267 1329.248047,109.166725 1329.285400,109.569305 
	C1329.950073,114.468361 1332.924683,116.693718 1336.897705,118.212128 
	C1338.874634,118.967636 1341.055054,119.969421 1342.381348,121.514069 
	C1348.215576,128.309448 1355.500732,129.754990 1363.903076,128.180008 
	C1364.316406,128.588882 1364.658081,128.877777 1365.122070,129.423248 
	C1366.153931,130.103333 1367.063477,130.526825 1367.972900,130.950302 
	C1368.279785,129.950287 1368.586670,128.950256 1368.934570,127.629974 
	C1369.254272,126.545860 1369.533081,125.782005 1370.152344,124.912033 
	C1372.342651,123.498955 1374.192261,122.191978 1376.439941,120.925392 
	C1378.891724,121.366074 1380.945679,121.766373 1383.092163,122.378357 
	C1384.123169,122.115585 1385.061646,121.641121 1386.400513,121.109062 
	C1391.549316,121.999939 1396.297607,122.948425 1400.844482,124.311790 
	C1398.595459,128.608871 1399.762451,131.662933 1402.989380,134.288452 
	C1406.806763,137.394409 1411.216431,140.074127 1414.157471,143.876083 
	C1417.506714,148.206009 1421.035400,150.262787 1425.511230,149.576935 
	C1424.079590,149.859299 1423.483276,149.815002 1422.946899,149.933105 
	C1423.076660,150.232330 1423.146484,150.369141 1423.216309,150.505951 
	C1423.149902,150.227814 1423.083618,149.949646 1423.246338,149.176941 
	C1427.150024,147.326340 1426.963135,150.482590 1427.610718,152.752090 
	C1424.999268,158.138336 1426.007935,161.557175 1430.882935,164.844513 
	C1436.074707,168.345352 1441.291870,171.808701 1446.468384,175.331757 
	C1449.912476,177.675812 1453.403687,178.408722 1457.525146,175.966141 
	C1461.297607,176.378540 1464.648682,176.772598 1468.139038,177.434860 
	C1473.192383,180.715729 1484.806885,176.277374 1488.414185,170.108932 
	C1490.218750,170.089691 1491.609131,170.128174 1493.092163,170.378326 
	C1494.123169,170.115540 1495.061646,169.641083 1496.414185,169.108917 
	C1498.218750,169.089691 1499.609131,169.128174 1501.126465,169.425125 
	C1505.366577,173.261047 1505.885132,169.509644 1507.245117,166.586426 
	C1510.688721,166.246719 1513.844238,166.206696 1517.139404,166.423920 
	C1522.295654,169.537323 1528.206421,167.592529 1531.465698,162.108673 
	C1534.081665,162.033783 1536.233765,161.952484 1538.381958,162.011826 
	C1545.459717,162.207352 1552.625122,161.838348 1559.588867,162.846909 
	C1567.157227,163.943085 1574.537354,166.338028 1582.092163,168.378357 
	C1583.123169,168.115585 1584.061646,167.641129 1585.451172,167.108765 
	C1588.934692,167.089462 1591.967163,167.128067 1595.092163,167.378372 
	C1596.123169,167.115601 1597.061646,166.641144 1598.446777,166.108826 
	C1602.370605,166.089523 1605.847900,166.128113 1609.378418,166.558075 
	C1610.004761,170.451279 1612.386475,171.139206 1615.323730,170.460785 
	C1626.474121,167.885376 1635.913086,161.693436 1645.439453,155.782639 
	C1646.744995,154.972549 1647.168335,152.740448 1648.461670,151.108734 
	C1653.281982,151.089401 1657.640869,151.128021 1662.137695,151.424683 
	C1664.833740,154.385254 1665.114868,151.890472 1666.145020,150.115891 
	C1669.864746,150.764877 1673.173706,151.465790 1676.359985,152.527344 
	C1675.643677,159.662766 1682.082397,163.189240 1689.850098,160.116806 
	C1691.811523,160.689743 1693.451538,161.313644 1695.111206,162.287933 
	C1695.518555,165.927643 1696.771118,166.503876 1699.469238,163.926025 
	C1707.039185,164.366653 1714.182129,164.766663 1721.380127,165.560333 
	C1722.532593,167.147903 1723.788574,169.423035 1724.691895,169.290665 
	C1726.169434,169.074127 1727.417358,167.290543 1729.175293,166.116241 
	C1737.725464,167.098557 1745.862549,168.132599 1754.135010,169.432007 
	C1758.565308,172.306412 1763.418213,170.431931 1766.397705,165.109390 
	C1767.863403,165.090302 1768.931519,165.128479 1770.126465,165.426270 
	C1774.076416,169.068695 1774.154541,165.394592 1775.357544,163.108978 
	C1776.917114,163.089752 1778.119385,163.128220 1779.407959,163.521545 
	C1780.496094,166.954224 1782.816772,167.291367 1784.832275,165.532181 
	C1786.922607,163.707504 1788.318115,161.086746 1790.040771,158.464905 
	C1790.984253,155.746567 1791.904053,153.377441 1793.209229,150.976196 
	C1796.696899,150.823090 1798.511353,149.244781 1799.397705,146.109390 
	C1800.863403,146.090302 1801.931519,146.128479 1803.094971,146.378082 
	C1804.112549,146.021713 1805.034790,145.453934 1806.114990,144.570023 
	C1807.582275,141.273422 1808.420044,137.948654 1810.294434,135.380585 
	C1814.928345,129.031982 1820.036987,123.029961 1825.207520,117.102539 
	C1828.334351,118.968605 1830.801392,119.686058 1830.936157,114.587616 
	C1832.368164,109.384171 1834.018677,104.779434 1840.201660,104.374306 
	C1841.200806,104.016655 1842.078857,103.451378 1843.067383,102.634933 
	C1843.517212,101.749886 1843.856689,101.116005 1844.634766,100.536102 
	C1848.036133,100.946220 1850.239624,100.096344 1851.106445,96.599930 
	C1852.488037,94.839462 1853.720337,93.365158 1855.252197,91.988022 
	C1860.893311,91.883362 1863.817505,88.908371 1865.046265,83.673943 
	C1865.319580,83.195747 1865.569580,83.027725 1866.220947,82.866898 
	C1867.689941,81.479416 1868.823486,80.182739 1870.075439,78.632912 
	C1870.757690,77.905708 1871.321533,77.431656 1872.269409,76.929901 
	C1875.904785,76.798820 1877.562744,75.010483 1878.098877,71.607620 
	C1879.458252,70.202950 1880.675781,69.076759 1882.245605,68.051414 
	C1888.604370,66.973228 1894.629150,65.875549 1900.598389,64.530472 
	C1901.528931,64.320763 1902.205200,62.982887 1903.255859,62.129780 
	C1903.683960,62.117451 1903.855103,62.142056 1904.205444,62.305061 
	C1904.625854,62.624626 1904.872314,62.798759 1905.484131,63.026733 
	C1907.095947,66.029106 1909.666382,66.193726 1912.322754,66.597733 
	C1913.070679,74.381279 1914.897339,75.847961 1921.000000,74.000000 
z"/>
<path fill="#000000" opacity="0.000000" stroke="none" 
	d="
M684.613647,187.166779 
	C682.677124,186.766342 680.740662,186.365891 678.263672,185.634689 
	C676.974976,184.924850 676.226746,184.545776 675.478516,184.166687 
	C670.304321,183.766129 665.130127,183.365555 659.367798,182.689362 
	C658.132996,182.115341 657.486328,181.816940 656.839600,181.518555 
	C655.510864,181.334427 654.182068,181.150314 652.233826,180.640442 
	C650.517090,179.932022 649.419922,179.549362 648.322693,179.166687 
	C645.557983,178.466522 642.793274,177.766342 639.396240,177.063477 
	C636.663696,178.105377 634.563354,179.149933 632.463074,180.194489 
	C632.463074,180.194489 632.300781,180.243256 631.997131,180.502914 
	C630.517822,182.175232 629.342224,183.587891 628.166626,185.000565 
	C627.520935,185.780319 626.875244,186.560059 625.787842,187.769012 
	C623.563904,189.187714 621.781799,190.177185 619.999634,191.166656 
	C618.931580,191.128479 617.863464,191.090302 616.065430,191.177216 
	C613.890198,191.923737 612.444885,192.545197 610.999634,193.166656 
	C606.390991,192.052597 604.878906,196.180038 601.755371,198.815033 
	C598.514771,201.812744 595.733337,204.352280 592.634033,206.924713 
	C591.891357,206.933319 591.466553,206.909027 590.820984,206.677246 
	C588.789368,207.879456 586.978577,209.289124 585.167725,210.698792 
	C584.769775,211.900833 584.371826,213.102875 583.571838,214.650970 
	C581.054810,216.667206 578.939758,218.337372 576.824768,220.007538 
	C576.535583,220.053696 576.309875,220.198685 575.694153,220.702682 
	C569.148010,223.268524 563.055237,225.574188 556.962524,227.879837 
	C555.442200,228.802170 553.921875,229.724503 552.229858,231.073105 
	C550.489136,232.030548 548.944153,232.652054 547.346619,233.075806 
	C542.697754,234.308929 537.952515,236.549438 533.395081,236.233154 
	C530.736572,236.048660 528.570923,235.691376 526.395325,237.127533 
	C520.896729,240.757248 515.460022,244.480759 509.998505,248.166656 
	C509.101410,248.243790 508.204346,248.320908 506.783264,248.698517 
	C505.839417,249.054886 505.419495,249.110779 504.999603,249.166656 
	C497.882690,249.110672 490.755096,249.266296 483.653320,248.909195 
	C480.117096,248.731400 476.628082,247.614136 472.635986,246.809814 
	C472.154266,246.697800 472.146240,246.795166 471.956421,246.527069 
	C470.857880,246.133728 469.949158,246.008453 468.826294,245.621674 
	C467.074615,245.517807 465.537048,245.675446 463.999451,245.833069 
	C461.509613,245.645569 459.019775,245.458054 455.934387,245.616486 
	C454.892395,246.030502 454.446014,246.098572 453.999603,246.166656 
	C442.517731,245.539597 431.035828,244.912521 418.942261,244.747406 
	C413.553589,247.861786 408.776611,250.514236 403.999634,253.166687 
	C401.127136,253.223267 398.254639,253.279861 394.843506,253.657837 
	C393.869781,254.041687 393.434692,254.104172 392.999603,254.166656 
	C390.614471,253.771378 388.229309,253.376083 385.253845,252.662720 
	C383.441742,251.951996 382.219940,251.559326 380.998169,251.166656 
	C380.422607,251.129562 379.847015,251.092484 378.659363,251.269669 
	C377.364716,251.711517 376.682129,251.939087 375.999542,252.166656 
	C371.275757,251.432037 366.551971,250.697418 361.205231,249.655136 
	C356.054718,250.620529 351.527191,251.893600 346.999634,253.166656 
	C346.121277,253.227493 345.242950,253.288315 343.834717,253.664185 
	C342.869781,254.041702 342.434692,254.104172 341.999603,254.166656 
	C339.481445,254.222000 336.963287,254.277328 333.804565,254.664886 
	C331.775909,255.386948 330.387756,255.776794 328.999634,256.166656 
	C327.463470,256.230072 325.927338,256.293457 323.763519,256.672546 
	C316.756653,258.381042 310.377411,259.773865 303.998199,261.166656 
	C293.854004,256.783234 283.980804,251.526794 273.487030,248.269562 
	C263.607941,245.203110 253.338043,243.717850 242.528122,245.560974 
	C235.775391,246.712326 228.455246,244.148956 221.364517,243.849197 
	C217.071442,243.667725 212.296356,243.646484 208.519730,245.318924 
	C203.732773,247.438782 199.547546,247.027847 194.823105,246.100311 
	C192.771103,245.697464 190.406509,247.084213 188.151352,247.465866 
	C185.703262,247.880157 183.217300,248.070755 180.015808,248.231262 
	C177.535156,248.695877 175.786545,249.288132 173.906570,249.620026 
	C172.483765,249.554306 171.192337,249.748962 169.510651,249.965088 
	C167.570541,250.397141 165.961761,250.659851 164.483185,251.249207 
	C161.439011,252.462601 158.464417,253.850555 155.461197,255.166687 
	C153.761108,255.978424 152.061020,256.790161 150.142761,258.089478 
	C148.228760,258.555145 146.532928,258.533173 144.837082,258.511200 
	C143.830215,258.330536 142.823349,258.149841 141.205048,257.635498 
	C138.907852,256.935211 137.232742,256.325531 135.534210,256.251221 
	C131.686493,256.082855 127.827209,256.178406 123.972633,256.166656 
	C120.584671,256.128387 117.196709,256.090118 113.065224,256.182434 
	C108.369186,258.939758 104.416679,261.566528 100.464172,264.193268 
	C100.464165,264.193268 100.301987,264.242096 99.975677,264.513672 
	C96.746376,265.785400 92.641350,268.496643 91.168091,267.461670 
	C86.923500,264.479767 85.121872,268.002502 82.588432,269.375793 
	C79.627487,270.980835 76.870758,272.979401 74.100243,274.914368 
	C71.314079,276.860291 68.619843,278.937836 65.885338,280.957703 
	C65.321472,281.431732 64.757599,281.905762 63.767014,282.791138 
	C60.893421,284.523895 58.446545,285.845276 55.999672,287.166656 
	C55.248478,287.129456 54.497284,287.092255 53.057022,287.164917 
	C51.578484,287.572083 50.789017,287.869354 49.662651,288.238312 
	C46.538254,289.833008 43.750751,291.356018 40.585960,292.927734 
	C37.628315,293.953796 34.807926,296.129517 32.515347,295.670319 
	C26.982359,294.562012 23.910280,297.311005 20.905499,300.939728 
	C20.905499,300.939728 20.961569,300.960846 20.640032,301.091431 
	C18.205179,302.084534 16.091864,302.946991 13.978550,303.809448 
	C11.596766,303.556641 9.214978,303.303802 6.100577,303.162872 
	C4.578533,303.572052 3.789104,303.869354 2.999681,304.166626 
	C2.556517,304.115753 2.113347,304.064880 1.335088,304.007019 
	C1.000000,203.019226 1.000000,102.038445 1.000000,1.038414 
	C641.000000,1.038414 1281.000000,1.038414 1921.000000,1.038414 
	C1921.000000,24.405447 1921.000000,47.734066 1920.651611,71.644142 
	C1917.644775,70.205940 1914.986328,68.186279 1912.327759,66.166649 
	C1909.666382,66.193726 1907.095947,66.029106 1905.369263,62.807823 
	C1904.683228,62.219185 1904.394043,62.098728 1904.026367,62.166660 
	C1903.855103,62.142056 1903.683960,62.117451 1902.876953,62.078110 
	C1899.377319,61.942314 1896.240112,61.019806 1893.711060,61.881714 
	C1889.564087,63.294914 1885.811890,65.867126 1881.893311,67.950584 
	C1880.675781,69.076759 1879.458252,70.202950 1877.798584,71.759933 
	C1875.532715,73.779663 1873.709106,75.368591 1871.885498,76.957565 
	C1871.321533,77.431656 1870.757690,77.905708 1869.779297,78.783112 
	C1868.204956,80.443558 1867.045166,81.700645 1865.885376,82.957718 
	C1865.569580,83.027725 1865.319580,83.195747 1864.734497,83.834366 
	C1861.206543,86.768295 1858.079712,89.329636 1854.952881,91.890915 
	C1853.720337,93.365158 1852.488037,94.839462 1850.781616,96.766953 
	C1848.270386,98.307457 1846.233276,99.394768 1844.196167,100.482101 
	C1843.856689,101.116005 1843.517212,101.749886 1842.822144,102.743851 
	C1841.671265,103.458191 1840.875977,103.812439 1840.080566,104.166687 
	C1834.018677,104.779434 1832.368164,109.384171 1830.578857,114.631683 
	C1828.437622,115.655121 1826.696289,116.271866 1824.954834,116.888626 
	C1820.036987,123.029961 1814.928345,129.031982 1810.294434,135.380585 
	C1808.420044,137.948654 1807.582275,141.273422 1805.821777,144.715393 
	C1804.580322,145.506821 1803.790039,145.836761 1802.999634,146.166672 
	C1801.931519,146.128479 1800.863403,146.090302 1799.070801,146.173569 
	C1796.505371,147.866089 1794.664673,149.437164 1792.823975,151.008286 
	C1791.904053,153.377441 1790.984253,155.746567 1789.729736,158.633835 
	C1786.047241,160.515472 1784.009277,165.165298 1779.321533,163.166687 
	C1778.119385,163.128220 1776.917114,163.089752 1775.025146,163.176819 
	C1772.890137,163.923782 1771.444824,164.545212 1769.999634,165.166656 
	C1768.931519,165.128479 1767.863403,165.090302 1766.041626,165.192780 
	C1761.525146,166.611191 1757.762451,167.888931 1753.999634,169.166672 
	C1745.862549,168.132599 1737.725464,167.098557 1728.841309,166.084869 
	C1725.838013,165.792389 1723.581543,165.479538 1721.325195,165.166687 
	C1714.182129,164.766663 1707.039185,164.366653 1699.332520,163.655823 
	C1697.543213,162.875854 1696.317383,162.406708 1695.091553,161.937561 
	C1693.451538,161.313644 1691.811523,160.689743 1689.628662,159.878784 
	C1684.884766,157.183395 1680.683838,154.675034 1676.482788,152.166672 
	C1673.173706,151.465790 1669.864746,150.764877 1665.820801,150.084869 
	C1664.057129,150.459396 1663.028442,150.813019 1661.999634,151.166656 
	C1657.640869,151.128021 1653.281982,151.089401 1648.121582,151.182632 
	C1642.197144,154.410873 1637.301270,158.001984 1631.895142,160.481110 
	C1624.803101,163.733490 1618.090210,169.286957 1609.325073,166.166687 
	C1605.847900,166.128113 1602.370605,166.089523 1598.130615,166.162888 
	C1596.578491,166.572083 1595.789062,166.869339 1594.999634,167.166641 
	C1591.967163,167.128067 1588.934692,167.089462 1585.135010,167.162872 
	C1583.578491,167.572128 1582.789062,167.869385 1581.999634,168.166656 
	C1574.537354,166.338028 1567.157227,163.943085 1559.588867,162.846909 
	C1552.625122,161.838348 1545.459717,162.207352 1538.381958,162.011826 
	C1536.233765,161.952484 1534.081665,162.033783 1531.111572,162.190277 
	C1525.861206,163.608795 1521.430420,164.887726 1516.999634,166.166656 
	C1513.844238,166.206696 1510.688721,166.246719 1506.926880,166.749268 
	C1504.546875,167.863403 1502.773193,168.515030 1500.999634,169.166656 
	C1499.609131,169.128174 1498.218750,169.089691 1496.098145,169.163040 
	C1494.578491,169.572128 1493.789062,169.869400 1492.999634,170.166656 
	C1491.609131,170.128174 1490.218750,170.089691 1488.058838,170.191742 
	C1480.859619,172.610397 1474.429565,174.888519 1467.999634,177.166656 
	C1464.648682,176.772598 1461.297607,176.378540 1457.310913,175.683533 
	C1446.654297,168.233673 1433.987793,164.406601 1427.829224,152.408264 
	C1426.963135,150.482590 1427.150024,147.326340 1423.206299,149.195282 
	C1422.937256,149.708130 1422.886963,149.770706 1422.886963,149.770706 
	C1423.483276,149.815002 1424.079590,149.859299 1425.492676,149.417587 
	C1421.478760,144.099289 1416.662598,139.252182 1411.812134,134.439636 
	C1408.246704,130.901962 1404.636353,127.409508 1401.046021,123.896896 
	C1396.297607,122.948425 1391.549316,121.999939 1386.084473,121.163170 
	C1384.578491,121.572136 1383.789062,121.869400 1382.999634,122.166672 
	C1380.945679,121.766373 1378.891724,121.366074 1376.228882,120.655540 
	C1373.683960,121.902908 1371.747803,123.460510 1369.811768,125.018127 
	C1369.533081,125.782005 1369.254272,126.545860 1368.592041,127.670799 
	C1367.139038,128.410141 1366.069336,128.788406 1364.999634,129.166656 
	C1364.658081,128.877777 1364.316406,128.588882 1363.885742,127.897224 
	C1360.291138,125.989532 1356.765381,124.529335 1353.289795,122.958282 
	C1351.846802,122.305954 1350.504761,121.427261 1349.127197,120.633522 
	C1342.498901,116.814644 1335.874023,112.989594 1329.248047,109.166725 
	C1329.248047,109.166725 1329.059570,109.097267 1328.708008,108.911987 
	C1326.346924,107.206696 1324.337402,105.686676 1322.327759,104.166672 
	C1321.756348,104.100975 1321.184937,104.035271 1320.180420,103.628662 
	C1317.847290,100.822136 1315.947266,98.356522 1313.890625,95.596298 
	C1311.503418,93.162865 1309.272827,91.024055 1307.001709,88.534142 
	C1304.676270,86.105408 1302.391235,84.027771 1300.106201,81.950134 
	C1299.279297,79.413857 1298.452393,76.877579 1297.244629,73.901115 
	C1296.678345,73.194313 1296.427246,73.025375 1296.110596,72.954102 
	C1295.282959,70.421791 1294.455200,67.889488 1293.189575,64.842163 
	C1291.537964,63.536171 1290.324341,62.745201 1289.110718,61.954231 
	C1288.656006,61.319153 1288.201294,60.684074 1287.375244,59.708294 
	C1286.280273,58.260738 1285.556763,57.153893 1284.833252,56.047073 
	C1284.151733,55.050705 1283.470337,54.054314 1282.261230,52.664368 
	C1278.816772,50.451542 1275.899902,48.632271 1272.983154,46.813004 
	C1269.493530,46.638195 1266.003784,46.463375 1261.918701,46.751732 
	C1259.540649,47.745411 1257.757935,48.275913 1255.975342,48.806412 
	C1254.577026,48.526131 1253.178589,48.245857 1251.180054,47.644798 
	C1249.063477,47.869549 1247.430176,48.213005 1246.058105,49.007538 
	C1243.944580,50.231438 1242.010010,51.764664 1239.649048,53.135010 
	C1236.532471,55.457775 1233.766602,57.812210 1230.673096,60.242725 
	C1228.563599,61.268078 1226.781616,62.217350 1224.999756,63.166641 
	C1219.641602,62.766228 1214.283325,62.365795 1208.334595,61.642815 
	C1206.125244,60.427002 1204.506470,59.533745 1202.619385,58.392105 
	C1199.770996,56.143646 1198.544922,51.871616 1193.671143,53.232800 
	C1191.855957,54.851986 1190.370483,56.405045 1188.884888,57.958107 
	C1188.568970,58.027981 1188.319092,58.195934 1187.752930,58.819412 
	C1186.580322,59.506786 1185.790039,59.836720 1184.999634,60.166656 
	C1173.310181,59.794666 1161.620728,59.422668 1149.149658,59.162773 
	C1147.578491,59.572128 1146.789062,59.869392 1145.999634,60.166656 
	C1144.609253,60.128181 1143.218994,60.089699 1141.016602,60.051666 
	C1139.135864,60.090305 1138.067139,60.128487 1136.998291,60.166664 
	C1134.626343,60.128063 1132.254517,60.089466 1129.094238,60.183807 
	C1126.858521,59.839798 1125.371948,59.454178 1123.976074,58.856907 
	C1122.862061,58.380241 1121.741943,56.973053 1120.824341,57.132038 
	C1113.502563,58.400467 1105.897461,59.119606 1100.462402,65.194870 
	C1100.462402,65.194870 1100.304443,65.240234 1099.992676,65.510025 
	C1099.056152,66.861580 1098.431396,67.943336 1097.806763,69.025108 
	C1097.648438,69.330055 1097.490234,69.634995 1097.191162,70.233795 
	C1092.854126,72.083771 1088.657837,73.639893 1084.461548,75.196014 
	C1084.461548,75.196014 1084.299683,75.244423 1083.992432,75.506012 
	C1081.123291,77.233963 1078.561523,78.700325 1075.999634,80.166672 
	C1071.616943,79.795120 1067.234253,79.423584 1062.080444,79.184662 
	C1059.504028,80.195045 1057.698608,81.072807 1055.893311,81.950569 
	C1054.284912,85.341797 1052.676514,88.733032 1050.725830,92.642212 
	C1047.274536,95.282516 1044.426514,98.112633 1040.106079,96.950043 
	C1039.633057,96.308762 1039.160034,95.667465 1038.182861,94.643051 
	C1034.748413,91.274025 1031.436646,91.666428 1027.999634,93.166672 
	C1026.266113,92.769669 1024.532593,92.372673 1022.200928,91.654938 
	C1019.037109,92.869354 1016.471375,94.404495 1013.905579,95.939636 
	C1013.905579,95.939629 1013.961670,95.960869 1013.639099,96.091698 
	C1010.602234,98.688393 1007.887939,101.154251 1005.173645,103.620102 
	C1003.883606,107.816727 1002.593567,112.013367 1000.820496,116.707504 
	C998.949463,118.678413 997.561462,120.151833 996.173462,121.625244 
	C993.203796,127.507072 990.234070,133.388901 986.809326,139.731720 
	C984.864624,141.781036 983.375061,143.369354 981.885498,144.957657 
	C981.272766,145.706863 980.660095,146.456100 979.726196,147.676300 
	C977.231812,150.417435 975.058594,152.687576 972.885376,154.957733 
	C972.321472,155.431732 971.757629,155.905731 970.797974,156.766266 
	C969.486633,157.433075 968.582397,157.759384 967.653870,157.986328 
	C960.293152,159.785385 953.096191,161.899490 947.885437,167.957642 
	C947.321533,168.431671 946.757629,168.905716 945.765503,169.791916 
	C943.186462,172.122116 941.035706,174.040146 938.884888,175.958160 
	C938.569092,176.028000 938.319275,176.195938 937.739136,176.831329 
	C934.561768,178.856003 931.780701,180.511322 928.999634,182.166656 
	C928.260010,182.100861 927.520386,182.035065 926.280273,181.691498 
	C925.132996,181.115326 924.486328,180.816940 923.839600,180.518539 
	C921.126709,179.710403 918.413757,178.902283 915.137573,178.018066 
	C910.715942,176.016861 906.857605,174.091751 902.999207,172.166656 
	C902.062500,171.945572 901.125732,171.724472 900.192505,171.436584 
	C899.032227,171.019821 897.868408,170.669846 896.704590,170.319885 
	C896.704590,170.319870 896.887817,170.557587 896.796082,170.296570 
	C895.220825,169.413177 893.737305,168.790771 892.253784,168.168396 
	C892.253784,168.168396 892.128906,168.157303 891.884644,168.075775 
	C890.440796,167.624420 889.241333,167.254593 887.974365,166.519653 
	C884.938232,165.825241 881.969543,165.495956 878.735474,165.181305 
	C877.666382,165.519516 876.862610,165.843109 876.058777,166.166702 
	C875.096191,166.288223 874.133606,166.409744 872.611206,166.998199 
	C871.367493,167.698959 870.683533,167.932800 869.999573,168.166656 
	C868.931519,168.128479 867.863464,168.090302 866.081787,168.163452 
	C864.578613,168.572067 863.789124,168.869354 862.999634,169.166641 
	C859.636536,169.128021 856.273376,169.089401 852.099304,169.191940 
	C844.302063,171.973541 837.372437,174.780670 830.306030,177.185608 
	C826.655090,178.428192 822.761169,178.956787 818.976990,179.807968 
	C817.243958,179.555679 815.510864,179.303406 813.023376,179.198792 
	C809.845825,179.953217 807.422729,180.559952 804.999634,181.166656 
	C803.609192,181.128174 802.218811,181.089691 800.098267,181.162994 
	C798.578613,181.572083 797.789124,181.869370 796.999634,182.166656 
	C793.296692,181.794724 789.593811,181.422791 785.097168,181.189423 
	C779.868835,182.940887 775.434204,184.553772 770.999634,186.166656 
	C770.564758,186.104172 770.129822,186.041687 769.120361,185.644348 
	C764.030334,186.261887 759.515015,187.214279 754.999634,188.166656 
	C753.283630,188.128098 751.567688,188.089539 749.081360,188.184021 
	C745.502502,190.197281 742.693970,192.077454 739.885437,193.957642 
	C739.569580,194.027634 739.319580,194.195679 738.739746,194.830505 
	C736.895813,195.855042 735.447693,196.510849 733.999634,197.166656 
	C730.938660,196.101212 727.877625,195.035767 724.257690,193.624268 
	C719.704956,191.475891 715.770935,189.518951 711.689392,187.944061 
	C709.951172,187.273346 707.904785,187.401520 705.998413,187.166656 
	C703.639709,187.099411 701.281006,187.032166 698.245483,186.642075 
	C695.882935,186.605682 694.006165,186.517593 692.552307,187.258804 
	C689.776245,188.674072 687.243652,188.886841 684.613647,187.166779 
z"/>
<path fill="#D0A17D" opacity="1.000000" stroke="none" 
	d="
M1912.322754,66.597702 
	C1914.986328,68.186279 1917.644775,70.205940 1920.651611,72.112801 
	C1921.000000,72.444443 1921.000000,72.888893 1921.000000,73.666672 
	C1914.897339,75.847961 1913.070679,74.381279 1912.322754,66.597702 
z"/>
<path fill="#D0A17D" opacity="1.000000" stroke="none" 
	d="
M1427.610718,152.752090 
	C1433.987793,164.406601 1446.654297,168.233673 1456.889404,175.665207 
	C1453.403687,178.408722 1449.912476,177.675812 1446.468384,175.331757 
	C1441.291870,171.808701 1436.074707,168.345352 1430.882935,164.844513 
	C1426.007935,161.557175 1424.999268,158.138336 1427.610718,152.752090 
z"/>
<path fill="#D0A17D" opacity="1.000000" stroke="none" 
	d="
M1329.285400,109.569305 
	C1335.874023,112.989594 1342.498901,116.814644 1349.127197,120.633522 
	C1350.504761,121.427261 1351.846802,122.305954 1353.289795,122.958282 
	C1356.765381,124.529335 1360.291138,125.989532 1363.813965,127.777229 
	C1355.500732,129.754990 1348.215576,128.309448 1342.381348,121.514069 
	C1341.055054,119.969421 1338.874634,118.967636 1336.897705,118.212128 
	C1332.924683,116.693718 1329.950073,114.468361 1329.285400,109.569305 
z"/>
<path fill="#D0A17D" opacity="1.000000" stroke="none" 
	d="
M1400.844482,124.311783 
	C1404.636353,127.409508 1408.246704,130.901962 1411.812134,134.439636 
	C1416.662598,139.252182 1421.478760,144.099289 1426.328125,149.090912 
	C1421.035400,150.262787 1417.506714,148.206009 1414.157471,143.876083 
	C1411.216431,140.074127 1406.806763,137.394409 1402.989380,134.288452 
	C1399.762451,131.662933 1398.595459,128.608871 1400.844482,124.311783 
z"/>
<path fill="#D0A17D" opacity="1.000000" stroke="none" 
	d="
M510.008301,248.394043 
	C515.460022,244.480759 520.896729,240.757248 526.395325,237.127533 
	C528.570923,235.691376 530.736572,236.048660 533.395081,236.233154 
	C537.952515,236.549438 542.697754,234.308929 547.346619,233.075806 
	C548.944153,232.652054 550.489136,232.030548 552.402954,231.383728 
	C551.162659,232.837692 549.812378,234.819077 547.940735,235.886093 
	C544.641235,237.767181 541.036438,239.120132 537.530273,240.626297 
	C536.635193,241.010803 535.464661,241.595642 534.701965,241.317383 
	C526.649109,238.379547 521.675171,244.051224 515.868164,247.674179 
	C514.291687,248.657745 512.579224,252.426773 510.008301,248.394043 
z"/>
<path fill="#D0A17D" opacity="1.000000" stroke="none" 
	d="
M1609.378418,166.558075 
	C1618.090210,169.286957 1624.803101,163.733490 1631.895142,160.481110 
	C1637.301270,158.001984 1642.197144,154.410873 1647.660156,151.240585 
	C1647.168335,152.740448 1646.744995,154.972549 1645.439453,155.782639 
	C1635.913086,161.693436 1626.474121,167.885376 1615.323730,170.460785 
	C1612.386475,171.139206 1610.004761,170.451279 1609.378418,166.558075 
z"/>
<path fill="#D0A17D" opacity="1.000000" stroke="none" 
	d="
M66.279205,280.932404 
	C68.619843,278.937836 71.314079,276.860291 74.100243,274.914368 
	C76.870758,272.979401 79.627487,270.980835 82.588432,269.375793 
	C85.121872,268.002502 86.923500,264.479767 91.168091,267.461670 
	C92.641350,268.496643 96.746376,265.785400 99.946426,264.593140 
	C100.379677,268.182495 97.595528,269.434174 94.778648,269.595978 
	C87.673233,270.004089 81.979156,273.290924 76.262283,277.085083 
	C73.456284,278.947327 69.893417,279.669159 66.279205,280.932404 
z"/>
<path fill="#D0A17D" opacity="1.000000" stroke="none" 
	d="
M819.140259,180.098770 
	C822.761169,178.956787 826.655090,178.428192 830.306030,177.185608 
	C837.372437,174.780670 844.302063,171.973541 851.644287,169.249878 
	C850.784607,170.649445 849.862793,172.868347 848.303772,173.490448 
	C840.636353,176.550156 832.854919,179.362274 824.976746,181.823593 
	C823.389954,182.319336 821.210022,180.916840 819.140259,180.098770 
z"/>
<path fill="#D0A17D" opacity="1.000000" stroke="none" 
	d="
M1100.877197,65.263748 
	C1105.897461,59.119606 1113.502563,58.400467 1120.824341,57.132038 
	C1121.741943,56.973053 1122.862061,58.380241 1123.976074,58.856907 
	C1125.371948,59.454178 1126.858521,59.839798 1128.653076,60.241707 
	C1127.863525,64.413048 1124.240112,64.097260 1121.751587,62.926125 
	C1116.362793,60.389996 1111.831543,61.776840 1107.032715,64.188171 
	C1105.351807,65.032837 1103.218628,64.977188 1100.877197,65.263748 
z"/>
<path fill="#D0A17D" opacity="1.000000" stroke="none" 
	d="
M303.941132,261.470459 
	C310.377411,259.773865 316.756653,258.381042 323.514954,256.969116 
	C321.307739,258.880890 318.924225,261.226013 316.075470,262.620819 
	C313.472870,263.895111 310.327240,264.011536 307.493073,264.875031 
	C304.454041,265.800934 303.393372,264.779877 303.941132,261.470459 
z"/>
<path fill="#D0A17D" opacity="1.000000" stroke="none" 
	d="
M123.916138,256.457275 
	C127.827209,256.178406 131.686493,256.082855 135.534210,256.251221 
	C137.232742,256.325531 138.907852,256.935211 140.817932,257.593567 
	C136.875275,260.954102 132.283096,262.574493 127.255371,260.704468 
	C125.830093,260.174316 124.975792,258.109100 123.916138,256.457275 
z"/>
<path fill="#D0A17D" opacity="1.000000" stroke="none" 
	d="
M948.292847,167.941711 
	C953.096191,161.899490 960.293152,159.785385 967.653870,157.986328 
	C968.582397,157.759384 969.486633,157.433075 970.679565,157.019455 
	C970.285095,157.985962 969.863464,159.689667 968.901001,160.088486 
	C962.230408,162.852814 955.447205,165.345718 948.292847,167.941711 
z"/>
<path fill="#D0A17D" opacity="1.000000" stroke="none" 
	d="
M705.964783,187.454132 
	C707.904785,187.401520 709.951172,187.273346 711.689392,187.944061 
	C715.770935,189.518951 719.704956,191.475891 723.870972,193.582245 
	C722.518677,195.863251 721.278442,196.317719 718.799988,194.574341 
	C716.301453,192.816833 712.997864,191.937698 709.918274,191.358231 
	C707.549377,190.912506 705.674683,190.733063 705.964783,187.454132 
z"/>
<path fill="#D0A17D" opacity="1.000000" stroke="none" 
	d="
M1882.245605,68.051422 
	C1885.811890,65.867126 1889.564087,63.294914 1893.711060,61.881714 
	C1896.240112,61.019806 1899.377319,61.942314 1902.620117,62.115044 
	C1902.205200,62.982887 1901.528931,64.320763 1900.598389,64.530472 
	C1894.629150,65.875549 1888.604370,66.973228 1882.245605,68.051422 
z"/>
<path fill="#D0A17D" opacity="1.000000" stroke="none" 
	d="
M21.312883,300.927368 
	C23.910280,297.311005 26.982359,294.562012 32.515347,295.670319 
	C34.807926,296.129517 37.628315,293.953796 40.592140,293.281189 
	C40.983742,294.057343 40.991871,294.528687 41.000000,295.000000 
	C35.484722,299.942017 28.187820,299.076874 21.312883,300.927368 
z"/>
<path fill="#D0A17D" opacity="1.000000" stroke="none" 
	d="
M1676.359985,152.527344 
	C1680.683838,154.675034 1684.884766,157.183395 1689.307373,159.929779 
	C1682.082397,163.189240 1675.643677,159.662766 1676.359985,152.527344 
z"/>
<path fill="#D0A17D" opacity="1.000000" stroke="none" 
	d="
M557.088074,228.161255 
	C563.055237,225.574188 569.148010,223.268524 575.622437,220.895813 
	C574.268494,224.160492 562.500427,230.589050 558.986328,229.982300 
	C558.326477,229.868378 557.801025,228.975891 557.088074,228.161255 
z"/>
<path fill="#D0A17D" opacity="1.000000" stroke="none" 
	d="
M1468.139038,177.434845 
	C1474.429565,174.888519 1480.859619,172.610397 1487.644775,170.249481 
	C1484.806885,176.277374 1473.192383,180.715729 1468.139038,177.434845 
z"/>
<path fill="#D0A17D" opacity="1.000000" stroke="none" 
	d="
M1299.908203,82.155289 
	C1302.391235,84.027771 1304.676270,86.105408 1306.996338,88.960449 
	C1307.020996,91.158577 1307.010498,92.579285 1307.000000,94.000000 
	C1304.213379,91.127670 1301.346436,88.324745 1298.736816,85.299774 
	C1298.390625,84.898499 1299.353516,83.367981 1299.908203,82.155289 
z"/>
<path fill="#D0A17D" opacity="1.000000" stroke="none" 
	d="
M155.356079,255.493439 
	C158.464417,253.850555 161.439011,252.462601 164.483185,251.249207 
	C165.961761,250.659851 167.570541,250.397141 169.657425,250.217041 
	C170.462982,250.965012 170.731491,251.482498 171.000000,252.000000 
	C166.718353,254.151016 162.433365,256.295410 158.156189,258.455231 
	C154.875198,260.112030 154.724411,258.346405 155.356079,255.493439 
z"/>
<path fill="#D0A17D" opacity="1.000000" stroke="none" 
	d="
M1314.047241,95.890915 
	C1315.947266,98.356522 1317.847290,100.822136 1319.895020,103.586929 
	C1317.809204,106.843628 1315.714600,106.456573 1313.695679,103.639885 
	C1312.245361,101.616295 1310.768311,99.611870 1309.525391,97.274582 
	C1311.180786,96.597153 1312.614014,96.244041 1314.047241,95.890915 
z"/>
<path fill="#D0A17D" opacity="1.000000" stroke="none" 
	d="
M404.121002,253.411285 
	C408.776611,250.514236 413.553589,247.861786 418.643799,245.047714 
	C417.179199,250.967606 408.864471,255.923096 404.121002,253.411285 
z"/>
<path fill="#D0A17D" opacity="1.000000" stroke="none" 
	d="
M684.492432,187.510406 
	C687.243652,188.886841 689.776245,188.674072 692.552307,187.258804 
	C694.006165,186.517593 695.882935,186.605682 697.805298,186.602051 
	C694.595764,188.501312 691.267395,190.506241 687.662476,191.598373 
	C685.235657,192.333588 683.478027,190.868469 684.492432,187.510406 
z"/>
<path fill="#D0A17D" opacity="1.000000" stroke="none" 
	d="
M1039.905273,97.158875 
	C1044.426514,98.112633 1047.274536,95.282516 1050.700439,92.987152 
	C1050.244873,97.864616 1046.300415,99.750595 1042.220581,101.270592 
	C1041.268677,101.625252 1039.851929,100.732468 1038.649048,100.413651 
	C1039.000854,99.398338 1039.352783,98.383026 1039.905273,97.158875 
z"/>
<path fill="#D0A17D" opacity="1.000000" stroke="none" 
	d="
M1231.000732,60.166656 
	C1233.766602,57.812210 1236.532471,55.457775 1239.649170,53.489166 
	C1240.000000,54.583332 1240.000000,55.291664 1240.000000,56.000000 
	C1240.070068,61.778820 1236.125244,62.105236 1231.429321,61.691978 
	C1231.000122,60.981483 1231.000366,60.574074 1231.000732,60.166656 
z"/>
<path fill="#D0A17D" opacity="1.000000" stroke="none" 
	d="
M347.140076,253.435638 
	C351.527191,251.893600 356.054718,250.620529 360.807770,249.611206 
	C358.612823,254.519180 351.656372,256.456299 347.140076,253.435638 
z"/>
<path fill="#D0A17D" opacity="1.000000" stroke="none" 
	d="
M903.046021,172.517868 
	C906.857605,174.091751 910.715942,176.016861 914.820801,178.065491 
	C910.048401,181.180862 905.016785,178.945435 903.046021,172.517868 
z"/>
<path fill="#D0A17D" opacity="1.000000" stroke="none" 
	d="
M771.135437,186.432327 
	C775.434204,184.553772 779.868835,182.940887 784.651855,181.247330 
	C782.872498,186.699066 775.907776,189.505127 771.135437,186.432327 
z"/>
<path fill="#D0A17D" opacity="1.000000" stroke="none" 
	d="
M100.881470,264.274353 
	C104.416679,261.566528 108.369186,258.939758 112.660927,256.239807 
	C111.143623,261.604004 107.188744,264.371674 100.881470,264.274353 
z"/>
<path fill="#D0A17D" opacity="1.000000" stroke="none" 
	d="
M755.139771,188.435394 
	C759.515015,187.214279 764.030334,186.261887 768.793823,185.597183 
	C764.640198,189.932190 759.044250,191.078583 755.139771,188.435394 
z"/>
<path fill="#D0A17D" opacity="1.000000" stroke="none" 
	d="
M1273.093750,47.158287 
	C1275.899902,48.632271 1278.816772,50.451542 1281.888184,52.578453 
	C1280.246826,55.325687 1278.362061,55.630596 1276.546265,52.970184 
	C1275.343750,51.208378 1274.312256,49.329849 1273.093750,47.158287 
z"/>
<path fill="#D0A17D" opacity="1.000000" stroke="none" 
	d="
M41.434589,294.998749 
	C40.991871,294.528687 40.983742,294.057343 40.969429,293.232544 
	C43.750751,291.356018 46.538254,289.833008 49.662720,288.592499 
	C49.999790,289.583344 49.999893,290.291656 50.000000,291.000000 
	C49.002594,295.816437 45.118607,294.761627 41.434589,294.998749 
z"/>
<path fill="#D0A17D" opacity="1.000000" stroke="none" 
	d="
M592.951965,206.891815 
	C595.733337,204.352280 598.514771,201.812744 601.592285,199.114166 
	C602.242249,200.387634 602.596191,201.820160 602.720642,203.742325 
	C601.994080,204.487976 601.497070,204.743988 601.000000,205.000000 
	C600.447693,205.515366 599.895386,206.030716 598.958496,206.959671 
	C598.049255,207.915497 597.524658,208.457748 597.000000,209.000000 
	C596.250000,209.000000 595.500000,209.000000 594.243896,208.736542 
	C593.475830,207.945984 593.213928,207.418900 592.951965,206.891815 
z"/>
<path fill="#D0A17D" opacity="1.000000" stroke="none" 
	d="
M1517.139404,166.423920 
	C1521.430420,164.887726 1525.861206,163.608795 1530.645996,162.248260 
	C1528.206421,167.592529 1522.295654,169.537323 1517.139404,166.423920 
z"/>
<path fill="#D0A17D" opacity="1.000000" stroke="none" 
	d="
M1194.000732,53.166672 
	C1198.544922,51.871616 1199.770996,56.143646 1202.222656,58.505112 
	C1201.062866,59.244331 1200.031372,59.622162 1199.000000,59.999992 
	C1197.528931,59.442123 1196.057983,58.884247 1194.293457,57.760303 
	C1194.000244,55.851715 1194.000488,54.509193 1194.000732,53.166672 
z"/>
<path fill="#D0A17D" opacity="1.000000" stroke="none" 
	d="
M1754.135010,169.432037 
	C1757.762451,167.888931 1761.525146,166.611191 1765.644043,165.250046 
	C1763.418213,170.431931 1758.565308,172.306412 1754.135010,169.432037 
z"/>
<path fill="#D0A17D" opacity="1.000000" stroke="none" 
	d="
M1779.407959,163.521545 
	C1784.009277,165.165298 1786.047241,160.515472 1789.706177,158.983063 
	C1788.318115,161.086746 1786.922607,163.707504 1784.832275,165.532181 
	C1782.816772,167.291367 1780.496094,166.954224 1779.407959,163.521545 
z"/>
<path fill="#D0A17D" opacity="1.000000" stroke="none" 
	d="
M1313.890625,95.596306 
	C1312.614014,96.244041 1311.180786,96.597153 1309.373779,96.975151 
	C1308.403198,96.192192 1307.806396,95.384346 1307.104736,94.288254 
	C1307.010498,92.579285 1307.020996,91.158577 1307.036865,89.311554 
	C1309.272827,91.024055 1311.503418,93.162865 1313.890625,95.596306 
z"/>
<path fill="#D0A17D" opacity="1.000000" stroke="none" 
	d="
M1240.354736,55.930874 
	C1240.000000,55.291664 1240.000000,54.583332 1239.999756,53.520840 
	C1242.010010,51.764664 1243.944580,50.231438 1246.058105,49.007538 
	C1247.430176,48.213005 1249.063477,47.869549 1250.810913,47.604507 
	C1247.597778,50.543911 1244.153564,53.202827 1240.354736,55.930874 
z"/>
<path fill="#D0A17D" opacity="1.000000" stroke="none" 
	d="
M1855.252197,91.988083 
	C1858.079712,89.329636 1861.206543,86.768295 1864.645264,84.046524 
	C1863.817505,88.908371 1860.893311,91.883362 1855.252197,91.988083 
z"/>
<path fill="#D0A17D" opacity="1.000000" stroke="none" 
	d="
M879.000793,165.166656 
	C881.969543,165.495956 884.938232,165.825241 887.967407,166.872192 
	C888.018494,168.059906 888.009216,168.529953 888.000000,169.000000 
	C885.299988,169.000000 882.599976,169.000000 879.449951,168.616669 
	C879.000244,167.211105 879.000549,166.188873 879.000793,165.166656 
z"/>
<path fill="#D0A17D" opacity="1.000000" stroke="none" 
	d="
M144.662003,258.817108 
	C146.532928,258.533173 148.228760,258.555145 150.273224,258.407837 
	C150.286484,259.311829 150.268143,260.768005 149.541962,261.369232 
	C148.436646,262.284363 146.840958,262.607147 145.453522,263.181519 
	C145.131317,261.828674 144.809113,260.475861 144.662003,258.817108 
z"/>
<path fill="#D0A17D" opacity="1.000000" stroke="none" 
	d="
M1028.148926,93.457787 
	C1031.436646,91.666428 1034.748413,91.274025 1037.860840,94.573013 
	C1034.285522,98.870445 1031.248657,96.681023 1028.148926,93.457787 
z"/>
<path fill="#D0A17D" opacity="1.000000" stroke="none" 
	d="
M1199.239502,60.222252 
	C1200.031372,59.622162 1201.062866,59.244331 1202.490967,58.753494 
	C1204.506470,59.533745 1206.125244,60.427002 1207.893555,61.603180 
	C1204.336182,66.467529 1202.097900,62.325043 1199.239502,60.222252 
z"/>
<path fill="#D0A17D" opacity="1.000000" stroke="none" 
	d="
M1084.905151,75.268700 
	C1088.657837,73.639893 1092.854126,72.083771 1097.410767,70.406982 
	C1095.422363,76.375183 1090.104492,75.167480 1084.905151,75.268700 
z"/>
<path fill="#D0A17D" opacity="1.000000" stroke="none" 
	d="
M929.128906,182.429047 
	C931.780701,180.511322 934.561768,178.856003 937.649902,177.043396 
	C936.148987,182.859009 933.039917,184.933914 929.128906,182.429047 
z"/>
<path fill="#D0A17D" opacity="1.000000" stroke="none" 
	d="
M1076.120605,80.410881 
	C1078.561523,78.700325 1081.123291,77.233963 1083.963379,75.585373 
	C1083.077637,80.950157 1080.393066,82.712494 1076.120605,80.410881 
z"/>
<path fill="#D0A17D" opacity="1.000000" stroke="none" 
	d="
M472.146240,246.795166 
	C472.146240,246.795166 472.154266,246.697800 472.203674,246.700958 
	C469.645477,251.349472 466.998962,251.297455 464.080292,246.189087 
	C465.537048,245.675446 467.074615,245.517807 469.099579,245.825653 
	C470.440033,246.459152 471.293152,246.627167 472.146240,246.795166 
z"/>
<path fill="#D0A17D" opacity="1.000000" stroke="none" 
	d="
M1005.569885,103.582382 
	C1007.887939,101.154251 1010.602234,98.688393 1013.628906,96.063515 
	C1013.221069,100.474426 1010.140320,102.580231 1005.569885,103.582382 
z"/>
<path fill="#D0A17D" opacity="1.000000" stroke="none" 
	d="
M1288.878662,62.146347 
	C1290.324341,62.745201 1291.537964,63.536171 1292.897217,64.606628 
	C1291.359619,65.424614 1289.676147,65.963112 1287.992920,66.501617 
	C1288.210815,65.113907 1288.428711,63.726189 1288.878662,62.146347 
z"/>
<path fill="#D0A17D" opacity="1.000000" stroke="none" 
	d="
M56.131596,287.431580 
	C58.446545,285.845276 60.893421,284.523895 63.648666,283.044312 
	C62.172215,288.796997 60.162418,290.053619 56.131596,287.431580 
z"/>
<path fill="#D0A17D" opacity="1.000000" stroke="none" 
	d="
M1322.328491,104.578751 
	C1324.337402,105.686676 1326.346924,107.206696 1328.617188,108.954529 
	C1324.618530,111.029083 1322.442993,109.620514 1322.328491,104.578751 
z"/>
<path fill="#D0A17D" opacity="1.000000" stroke="none" 
	d="
M740.282349,193.939575 
	C742.693970,192.077454 745.502502,190.197281 748.655640,188.241882 
	C747.875488,192.469147 744.609680,193.675842 740.282349,193.939575 
z"/>
<path fill="#D0A17D" opacity="1.000000" stroke="none" 
	d="
M1721.380127,165.560349 
	C1723.581543,165.479538 1725.838013,165.792389 1728.428223,166.136612 
	C1727.417358,167.290543 1726.169434,169.074127 1724.691895,169.290665 
	C1723.788574,169.423035 1722.532593,167.147903 1721.380127,165.560349 
z"/>
<path fill="#D0A17D" opacity="1.000000" stroke="none" 
	d="
M577.231812,219.995163 
	C578.939758,218.337372 581.054810,216.667206 583.531921,214.973480 
	C584.475220,219.941330 580.789307,219.629288 577.231812,219.995163 
z"/>
<path fill="#D0A17D" opacity="1.000000" stroke="none" 
	d="
M1014.305115,95.933060 
	C1016.471375,94.404495 1019.037109,92.869354 1021.818604,91.605148 
	C1019.591064,93.226219 1017.147827,94.576355 1014.305115,95.933060 
z"/>
<path fill="#D0A17D" opacity="1.000000" stroke="none" 
	d="
M1284.511841,56.165947 
	C1285.556763,57.153893 1286.280273,58.260738 1287.055786,59.659580 
	C1285.509399,59.959644 1283.910889,59.967720 1282.312500,59.975777 
	C1282.938477,58.745453 1283.564453,57.515148 1284.511841,56.165947 
z"/>
<path fill="#D0A17D" opacity="1.000000" stroke="none" 
	d="
M939.268738,175.922165 
	C941.035706,174.040146 943.186462,172.122116 945.647095,170.045105 
	C945.515320,173.630066 943.432678,175.649887 939.268738,175.922165 
z"/>
<path fill="#D0A17D" opacity="1.000000" stroke="none" 
	d="
M805.132324,181.419403 
	C807.422729,180.559952 809.845825,179.953217 812.634521,179.256561 
	C811.399597,183.020508 809.027222,184.491577 805.132324,181.419403 
z"/>
<path fill="#D0A17D" opacity="1.000000" stroke="none" 
	d="
M1136.941406,60.468124 
	C1138.067139,60.128487 1139.135864,60.090305 1140.602539,60.109386 
	C1140.026855,61.488564 1139.053345,62.810478 1138.079834,64.132401 
	C1137.681396,63.011467 1137.282959,61.890522 1136.941406,60.468124 
z"/>
<path fill="#D0A17D" opacity="1.000000" stroke="none" 
	d="
M14.124613,304.080383 
	C16.091864,302.946991 18.205179,302.084534 20.629856,301.063263 
	C19.234131,306.440430 18.112501,307.020020 14.124613,304.080383 
z"/>
<path fill="#D0A17D" opacity="1.000000" stroke="none" 
	d="
M1230.673096,60.242737 
	C1231.000366,60.574074 1231.000122,60.981483 1231.000000,61.694443 
	C1229.479614,63.901844 1228.389526,67.264908 1225.128418,63.428619 
	C1226.781616,62.217350 1228.563599,61.268078 1230.673096,60.242737 
z"/>
<path fill="#D0A17D" opacity="1.000000" stroke="none" 
	d="
M1825.207520,117.102524 
	C1826.696289,116.271866 1828.437622,115.655121 1830.536377,114.994308 
	C1830.801392,119.686058 1828.334351,118.968605 1825.207520,117.102524 
z"/>
<path fill="#D0A17D" opacity="1.000000" stroke="none" 
	d="
M174.037949,249.880386 
	C175.786545,249.288132 177.535156,248.695877 179.642151,248.135132 
	C179.284943,250.957306 178.017944,253.008606 174.310715,251.740494 
	C174.021027,250.822433 174.029495,250.351410 174.037949,249.880386 
z"/>
<path fill="#D0A17D" opacity="1.000000" stroke="none" 
	d="
M620.119629,191.409943 
	C621.781799,190.177185 623.563904,189.187714 625.651550,188.042175 
	C624.373352,193.085220 623.887329,193.405472 620.119629,191.409943 
z"/>
<path fill="#D0A17D" opacity="1.000000" stroke="none" 
	d="
M973.238403,154.881683 
	C975.058594,152.687576 977.231812,150.417435 979.711731,147.980225 
	C979.314758,151.466263 977.315247,153.928360 973.238403,154.881683 
z"/>
<path fill="#D0A17D" opacity="1.000000" stroke="none" 
	d="
M1501.126465,169.425125 
	C1502.773193,168.515030 1504.546875,167.863403 1506.638672,167.048950 
	C1505.885132,169.509644 1505.366577,173.261047 1501.126465,169.425125 
z"/>
<path fill="#D0A17D" opacity="1.000000" stroke="none" 
	d="
M1256.131958,49.091240 
	C1257.757935,48.275913 1259.540649,47.745411 1261.640137,47.050499 
	C1261.036987,49.922939 1260.386841,53.574360 1256.131958,49.091240 
z"/>
<path fill="#D0A17D" opacity="1.000000" stroke="none" 
	d="
M632.926392,180.272980 
	C634.563354,179.149933 636.663696,178.105377 639.034668,177.114075 
	C637.333496,178.228729 635.361633,179.290100 632.926392,180.272980 
z"/>
<path fill="#D0A17D" opacity="1.000000" stroke="none" 
	d="
M1193.671143,53.232800 
	C1194.000488,54.509193 1194.000244,55.851715 1194.000000,57.597118 
	C1192.579224,57.989574 1191.158325,57.979153 1189.311279,57.963417 
	C1190.370483,56.405045 1191.855957,54.851986 1193.671143,53.232800 
z"/>
<path fill="#D0A17D" opacity="1.000000" stroke="none" 
	d="
M329.122314,256.421997 
	C330.387756,255.776794 331.775909,255.386948 333.528992,254.973541 
	C333.470154,258.555847 332.078125,259.555878 329.122314,256.421997 
z"/>
<path fill="#D0A17D" opacity="1.000000" stroke="none" 
	d="
M1370.152344,124.912018 
	C1371.747803,123.460510 1373.683960,121.902908 1375.831055,120.615150 
	C1374.192261,122.191978 1372.342651,123.498955 1370.152344,124.912018 
z"/>
<path fill="#D0A17D" opacity="1.000000" stroke="none" 
	d="
M734.127625,197.426910 
	C735.447693,196.510849 736.895813,195.855042 738.650452,195.042664 
	C738.151917,197.098862 738.384216,201.052719 734.127625,197.426910 
z"/>
<path fill="#D0A17D" opacity="1.000000" stroke="none" 
	d="
M1793.209229,150.976166 
	C1794.664673,149.437164 1796.505371,147.866089 1798.673096,146.230835 
	C1798.511353,149.244781 1796.696899,150.823090 1793.209229,150.976166 
z"/>
<path fill="#D0A17D" opacity="1.000000" stroke="none" 
	d="
M611.126465,193.426224 
	C612.444885,192.545197 613.890198,191.923737 615.667847,191.234467 
	C615.154663,193.394699 615.076416,197.068649 611.126465,193.426224 
z"/>
<path fill="#D0A17D" opacity="1.000000" stroke="none" 
	d="
M1872.269409,76.929871 
	C1873.709106,75.368591 1875.532715,73.779663 1877.656738,72.038414 
	C1877.562744,75.010483 1875.904785,76.798820 1872.269409,76.929871 
z"/>
<path fill="#D0A17D" opacity="1.000000" stroke="none" 
	d="
M1844.634766,100.536079 
	C1846.233276,99.394768 1848.270386,98.307457 1850.632324,97.053116 
	C1850.239624,100.096344 1848.036133,100.946220 1844.634766,100.536079 
z"/>
<path fill="#D0A17D" opacity="1.000000" stroke="none" 
	d="
M1770.126465,165.426254 
	C1771.444824,164.545212 1772.890137,163.923782 1774.667725,163.234497 
	C1774.154541,165.394592 1774.076416,169.068695 1770.126465,165.426254 
z"/>
<path fill="#D0A17D" opacity="1.000000" stroke="none" 
	d="
M1056.222168,82.045563 
	C1057.698608,81.072807 1059.504028,80.195045 1061.654785,79.241974 
	C1061.250000,82.111473 1059.367798,82.982094 1056.222168,82.045563 
z"/>
<path fill="#D0A17D" opacity="1.000000" stroke="none" 
	d="
M1365.122070,129.423248 
	C1366.069336,128.788406 1367.139038,128.410141 1368.551270,127.991058 
	C1368.586670,128.950256 1368.279785,129.950287 1367.972900,130.950302 
	C1367.063477,130.526825 1366.153931,130.103333 1365.122070,129.423248 
z"/>
<path fill="#D0A17D" opacity="1.000000" stroke="none" 
	d="
M1695.111206,162.287949 
	C1696.317383,162.406708 1697.543213,162.875854 1698.905762,163.615204 
	C1696.771118,166.503876 1695.518555,165.927643 1695.111206,162.287949 
z"/>
<path fill="#D0A17D" opacity="1.000000" stroke="none" 
	d="
M380.966980,251.440277 
	C382.219940,251.559326 383.441742,251.951996 384.852905,252.614990 
	C383.157959,254.301849 381.219910,255.906830 380.966980,251.440277 
z"/>
<path fill="#D0A17D" opacity="1.000000" stroke="none" 
	d="
M628.505859,184.932175 
	C629.342224,183.587891 630.517822,182.175232 631.967896,180.582413 
	C631.109924,181.889435 629.977539,183.376617 628.505859,184.932175 
z"/>
<path fill="#D0A17D" opacity="1.000000" stroke="none" 
	d="
M982.244019,144.898499 
	C983.375061,143.369354 984.864624,141.781036 986.655640,140.039398 
	C985.505554,141.537155 984.054077,143.188217 982.244019,144.898499 
z"/>
<path fill="#D0A17D" opacity="1.000000" stroke="none" 
	d="
M585.588684,210.662048 
	C586.978577,209.289124 588.789368,207.879456 590.815308,207.066650 
	C591.020203,208.442368 591.010071,209.221176 591.000000,210.000000 
	C589.336548,210.208450 587.673096,210.416870 585.588684,210.662048 
z"/>
<path fill="#D0A17D" opacity="1.000000" stroke="none" 
	d="
M996.558777,121.576691 
	C997.561462,120.151833 998.949463,118.678413 1000.647217,117.045547 
	C999.619385,118.433449 998.281738,119.980789 996.558777,121.576691 
z"/>
<path fill="#D0A17D" opacity="1.000000" stroke="none" 
	d="
M675.371216,184.457947 
	C676.226746,184.545776 676.974976,184.924850 677.882690,185.594543 
	C677.154114,186.397095 676.266174,186.909058 675.378174,187.421051 
	C675.340088,186.530441 675.302002,185.639816 675.371216,184.457947 
z"/>
<path fill="#D0A17D" opacity="1.000000" stroke="none" 
	d="
M1662.137695,151.424683 
	C1663.028442,150.813019 1664.057129,150.459396 1665.410156,150.136780 
	C1665.114868,151.890472 1664.833740,154.385254 1662.137695,151.424683 
z"/>
<path fill="#D0A17D" opacity="1.000000" stroke="none" 
	d="
M892.441162,168.583923 
	C893.737305,168.790771 895.220825,169.413177 896.914917,170.204926 
	C895.626587,169.916016 894.127563,169.457733 892.441162,168.583923 
z"/>
<path fill="#D0A17D" opacity="1.000000" stroke="none" 
	d="
M923.713989,180.741394 
	C924.486328,180.816940 925.132996,181.115326 925.910889,181.649384 
	C925.216248,182.165390 924.390442,182.445709 923.564636,182.726028 
	C923.572571,182.138779 923.580505,181.551514 923.713989,180.741394 
z"/>
<path fill="#D0A17D" opacity="1.000000" stroke="none" 
	d="
M173.906570,249.620026 
	C174.029495,250.351410 174.021027,250.822433 174.006287,251.646729 
	C173.250000,252.000000 172.500000,252.000000 171.375000,252.000000 
	C170.731491,251.482498 170.462982,250.965012 170.047699,250.195572 
	C171.192337,249.748962 172.483765,249.554306 173.906570,249.620026 
z"/>
<path fill="#D0A17D" opacity="1.000000" stroke="none" 
	d="
M648.374146,179.474686 
	C649.419922,179.549362 650.517090,179.932022 651.828125,180.599808 
	C650.276184,182.355835 648.995056,182.236557 648.374146,179.474686 
z"/>
<path fill="#D0A17D" opacity="1.000000" stroke="none" 
	d="
M656.713989,181.741409 
	C657.486328,181.816940 658.132996,182.115341 658.910889,182.649384 
	C658.216248,183.165375 657.390442,183.445694 656.564636,183.726013 
	C656.572571,183.138779 656.580505,182.551514 656.713989,181.741409 
z"/>
<path fill="#D0A17D" opacity="1.000000" stroke="none" 
	d="
M1295.901855,73.117691 
	C1296.427246,73.025375 1296.678345,73.194313 1296.953613,73.673859 
	C1296.273682,74.549973 1295.503662,75.213150 1294.733765,75.876335 
	C1294.539673,75.693329 1294.345581,75.510330 1294.151611,75.327332 
	C1294.665405,74.645317 1295.179199,73.963303 1295.901855,73.117691 
z"/>
<path fill="#D0A17D" opacity="1.000000" stroke="none" 
	d="
M1866.220947,82.866913 
	C1867.045166,81.700645 1868.204956,80.443558 1869.660889,79.036270 
	C1868.823486,80.182739 1867.689941,81.479416 1866.220947,82.866913 
z"/>
<path fill="#D0A17D" opacity="1.000000" stroke="none" 
	d="
M50.276501,290.845703 
	C49.999893,290.291656 49.999790,289.583344 49.999615,288.520813 
	C50.789017,287.869354 51.578484,287.572083 52.684059,287.220734 
	C52.184444,288.341583 51.368725,289.516510 50.276501,290.845703 
z"/>
<path fill="#D0A17D" opacity="1.000000" stroke="none" 
	d="
M1146.092163,60.378357 
	C1146.789062,59.869392 1147.578491,59.572128 1148.684082,59.220772 
	C1148.061646,59.641136 1147.123169,60.115597 1146.092163,60.378357 
z"/>
<path fill="#D0A17D" opacity="1.000000" stroke="none" 
	d="
M1185.094971,60.378071 
	C1185.790039,59.836720 1186.580322,59.506786 1187.663818,59.031494 
	C1187.034790,59.453918 1186.112549,60.021702 1185.094971,60.378071 
z"/>
<path fill="#D0A17D" opacity="1.000000" stroke="none" 
	d="
M3.092194,304.378326 
	C3.789104,303.869354 4.578533,303.572052 5.684059,303.220734 
	C5.061674,303.641113 4.123193,304.115570 3.092194,304.378326 
z"/>
<path fill="#D0A17D" opacity="1.000000" stroke="none" 
	d="
M797.092163,182.378326 
	C797.789124,181.869370 798.578613,181.572083 799.684204,181.220734 
	C799.061707,181.641098 798.123230,182.115540 797.092163,182.378326 
z"/>
<path fill="#D0A17D" opacity="1.000000" stroke="none" 
	d="
M878.735474,165.181305 
	C879.000549,166.188873 879.000244,167.211105 879.000000,168.616669 
	C878.134521,168.258652 877.268982,167.517303 876.231140,166.471329 
	C876.862610,165.843109 877.666382,165.519516 878.735474,165.181305 
z"/>
<path fill="#D0A17D" opacity="1.000000" stroke="none" 
	d="
M1595.092163,167.378342 
	C1595.789062,166.869339 1596.578491,166.572083 1597.684082,166.220764 
	C1597.061646,166.641144 1596.123169,167.115601 1595.092163,167.378342 
z"/>
<path fill="#D0A17D" opacity="1.000000" stroke="none" 
	d="
M888.425049,169.057404 
	C888.009216,168.529953 888.018494,168.059906 888.034790,167.237320 
	C889.241333,167.254593 890.440796,167.624420 891.879028,168.138214 
	C891.028564,168.559738 889.939331,168.837265 888.425049,169.057404 
z"/>
<path fill="#D0A17D" opacity="1.000000" stroke="none" 
	d="
M1582.092163,168.378357 
	C1582.789062,167.869385 1583.578491,167.572128 1584.684082,167.220764 
	C1584.061646,167.641129 1583.123169,168.115585 1582.092163,168.378357 
z"/>
<path fill="#D0A17D" opacity="1.000000" stroke="none" 
	d="
M863.092163,169.378326 
	C863.789124,168.869354 864.578613,168.572067 865.684204,168.220718 
	C865.061707,168.641098 864.123230,169.115540 863.092163,169.378326 
z"/>
<path fill="#D0A17D" opacity="1.000000" stroke="none" 
	d="
M1493.092163,170.378326 
	C1493.789062,169.869400 1494.578491,169.572128 1495.684082,169.220734 
	C1495.061646,169.641083 1494.123169,170.115540 1493.092163,170.378326 
z"/>
<path fill="#D0A17D" opacity="1.000000" stroke="none" 
	d="
M1803.094971,146.378082 
	C1803.790039,145.836761 1804.580322,145.506821 1805.663818,145.031525 
	C1805.034790,145.453934 1804.112549,146.021713 1803.094971,146.378082 
z"/>
<path fill="#D0A17D" opacity="1.000000" stroke="none" 
	d="
M1383.092163,122.378357 
	C1383.789062,121.869400 1384.578491,121.572136 1385.684082,121.220772 
	C1385.061646,121.641121 1384.123169,122.115585 1383.092163,122.378357 
z"/>
<path fill="#D0A17D" opacity="1.000000" stroke="none" 
	d="
M376.097504,252.375000 
	C376.682129,251.939087 377.364716,251.711517 378.375092,251.325745 
	C377.867065,251.639496 377.031281,252.111435 376.097504,252.375000 
z"/>
<path fill="#D0A17D" opacity="1.000000" stroke="none" 
	d="
M597.215210,209.047577 
	C597.524658,208.457748 598.049255,207.915497 598.786987,207.186630 
	C598.476807,207.698380 597.953613,208.396759 597.215210,209.047577 
z"/>
<path fill="#D0A17D" opacity="1.000000" stroke="none" 
	d="
M1098.093018,68.856865 
	C1098.431396,67.943336 1099.056152,66.861580 1099.965820,65.587753 
	C1099.626953,66.493332 1099.003052,67.590981 1098.093018,68.856865 
z"/>
<path fill="#D0A17D" opacity="1.000000" stroke="none" 
	d="
M505.078461,249.371429 
	C505.419495,249.110779 505.839417,249.054886 506.576599,248.974518 
	C506.762726,249.510559 506.631561,250.071060 506.500366,250.631546 
	C506.052673,250.279770 505.604980,249.927994 505.078461,249.371429 
z"/>
<path fill="#D0A17D" opacity="1.000000" stroke="none" 
	d="
M870.096924,168.377472 
	C870.683533,167.932800 871.367493,167.698959 872.375732,167.289261 
	C871.864807,167.605042 871.029541,168.096680 870.096924,168.377472 
z"/>
<path fill="#D0A17D" opacity="1.000000" stroke="none" 
	d="
M1840.201660,104.374313 
	C1840.875977,103.812439 1841.671265,103.458191 1842.711914,102.995018 
	C1842.078857,103.451378 1841.200806,104.016655 1840.201660,104.374313 
z"/>
<path fill="#D0A17D" opacity="1.000000" stroke="none" 
	d="
M591.308228,209.925781 
	C591.010071,209.221176 591.020203,208.442368 591.036011,207.274139 
	C591.466553,206.909027 591.891357,206.933319 592.634033,206.924713 
	C593.213928,207.418900 593.475830,207.945984 593.868896,208.736542 
	C593.205505,209.283844 592.410950,209.567703 591.308228,209.925781 
z"/>
<path fill="#D0A17D" opacity="1.000000" stroke="none" 
	d="
M342.073608,254.347168 
	C342.434692,254.104172 342.869781,254.041702 343.631531,253.932007 
	C343.354645,254.099075 342.751129,254.313370 342.073608,254.347168 
z"/>
<path fill="#D0A17D" opacity="1.000000" stroke="none" 
	d="
M393.073608,254.347168 
	C393.434692,254.104172 393.869781,254.041687 394.631531,253.932007 
	C394.354645,254.099091 393.751129,254.313385 393.073608,254.347168 
z"/>
<path fill="#D0A17D" opacity="1.000000" stroke="none" 
	d="
M601.184570,205.060455 
	C601.497070,204.743988 601.994080,204.487976 602.745605,204.115997 
	C602.456421,204.373642 601.912781,204.747269 601.184570,205.060455 
z"/>
<path fill="#D0A17D" opacity="1.000000" stroke="none" 
	d="
M454.074951,246.347794 
	C454.446014,246.098572 454.892395,246.030502 455.671265,245.895874 
	C455.385925,246.062531 454.768127,246.295731 454.074951,246.347794 
z"/>
<path fill="#D0A17D" opacity="1.000000" stroke="none" 
	d="
M897.127563,170.620636 
	C897.868408,170.669846 899.032227,171.019821 900.286011,171.737854 
	C899.434204,171.711090 898.492432,171.316254 897.127563,170.620636 
z"/>
<path fill="#D0A17D" opacity="1.000000" stroke="none" 
	d="
M1422.946899,149.933105 
	C1422.886963,149.770706 1422.937256,149.708130 1422.977295,149.689804 
	C1423.083618,149.949646 1423.149902,150.227814 1423.216309,150.505951 
	C1423.146484,150.369141 1423.076660,150.232330 1422.946899,149.933105 
z"/>
<path fill="#D0A17D" opacity="1.000000" stroke="none" 
	d="
M1904.205444,62.305061 
	C1904.394043,62.098728 1904.683228,62.219185 1905.009033,62.746941 
	C1904.872314,62.798759 1904.625854,62.624626 1904.205444,62.305061 
z"/>
<path fill="#D0A17D" opacity="1.000000" stroke="none" 
	d="
M471.956421,246.527084 
	C471.293152,246.627167 470.440033,246.459152 469.313660,246.087158 
	C469.949158,246.008453 470.857880,246.133728 471.956421,246.527084 
z"/>
</svg>